<?xml version="1.0" encoding="UTF-8" standalone="no"?>
<svg xmlns:ffdec="https://www.free-decompiler.com/flash" xmlns:xlink="http://www.w3.org/1999/xlink" ffdec:objectType="shape" height="47.6px" width="22.85px" xmlns="http://www.w3.org/2000/svg">
  <g transform="matrix(1.0, 0.0, 0.0, 1.0, 0.3, 0.3)">
    <path d="M1.3 19.85 L3.35 16.15 0.2 11.95 0.2 7.85 6.6 0.3 16.1 0.2 21.45 7.45 21.45 13.05 19.35 16.65 22.05 20.65 22.05 46.8 1.2 46.8 1.3 19.85" fill="#000000" fill-rule="evenodd" stroke="none"/>
    <path d="M1.2 46.8 L1.3 19.85" fill="none" stroke="#000000" stroke-linecap="round" stroke-linejoin="round" stroke-width="1.0"/>
    <path d="M1.3 19.85 L3.35 16.15 0.2 11.95 0.2 7.85 6.6 0.3 16.1 0.2 21.45 7.45 21.45 13.05 19.35 16.65 22.05 20.65 22.05 46.8 1.2 46.8" fill="none" stroke="#000000" stroke-linecap="round" stroke-linejoin="round" stroke-width="1.0"/>
  </g>
</svg>
