<?xml version="1.0" encoding="UTF-8" standalone="no"?>
<svg xmlns:ffdec="https://www.free-decompiler.com/flash" xmlns:xlink="http://www.w3.org/1999/xlink" ffdec:objectType="shape" height="72.7px" width="43.95px" xmlns="http://www.w3.org/2000/svg">
  <g transform="matrix(1.0, 0.0, 0.0, 1.0, 0.0, 0.0)">
    <path d="M37.6 40.85 Q40.75 45.3 40.7 50.85 40.55 68.75 22.95 72.25 12.8 74.3 5.3 67.5 -2.8 60.1 5.25 52.9 10.2 48.5 16.3 51.6 L17.3 51.65 Q19.65 51.7 20.05 50.1 11.25 42.35 3.75 32.7 -2.8 24.2 2.1 14.55 6.05 6.75 14.4 3.1 19.7 0.75 25.05 0.1 42.8 -1.2 43.95 14.7 44.2 18.9 40.45 21.2 34.2 25.0 28.3 20.6 L25.8 20.65 Q23.8 20.9 22.3 22.35 30.8 31.15 37.6 40.85" fill="#000000" fill-rule="evenodd" stroke="none"/>
  </g>
</svg>
